<svg width="30" height="41" viewBox="0 0 30 41" fill="none" xmlns="http://www.w3.org/2000/svg">
<ellipse cx="5.78668" cy="34.7818" rx="5.78668" ry="5.79697" fill="#FC5C50"/>
<path d="M5.82778 14.4624C2.60919 14.4624 0 17.0559 0 20.2551V28.6439C1.14113 27.0725 3.0129 26.0479 5.12844 26.0479H16.3178C19.5364 26.0479 22.1456 23.4544 22.1456 20.2551C22.1456 20.2432 22.1455 20.2312 22.1454 20.2193L22.1456 14.4624H5.82778Z" fill="#2063F8"/>
<path d="M5.80269 0C2.59795 0 0 2.5935 0 5.79274V14.1815C1.13622 12.6101 2.99993 11.5855 5.10637 11.5855H23.2108C26.4155 11.5855 29.0135 8.99198 29.0135 5.79274C29.0135 5.78077 29.0134 5.7688 29.0134 5.75685L29.0135 0H5.80269Z" fill="#02B2FE"/>
</svg>
